# xmcd CD database file
#
# Track frame offsets:
#	150
#	25661
#	55287
#	77706
#	103751
#	128495
#	153744
#	179052
#	204695
#	234351
#	257050
#	278980
#	302943
#	328862
#	351964
#
# Disc length: 4733 seconds
#
# Revision: 0
# Processed by: cddbd v1.5PL3 Copyright (c) Steve Scherf et al.
# Submitted via: CDex 1.51
#
DISCID=de127b0f
DTITLE=Aebersold - Volume 88 Millennium Blues
DYEAR=1999
DGENRE=Jazz
TTITLE0=01-Achin And Breakin
TTITLE1=02-Lame Duck
TTITLE2=03-Solar
TTITLE3=04-The Real McCoy
TTITLE4=05-3/4 Double-Up Blues
TTITLE5=06-In A Minor Mood
TTITLE6=07-Bertha's Bossa
TTITLE7=08-Sweet Combustion
TTITLE8=09-Hustle And Shuffle
TTITLE9=10-Dance Of The Infidels
TTITLE10=11-Faster Than Whiz
TTITLE11=12-Stop, Stop, Stop-Time Blues
TTITLE12=13-Three Plus Two
TTITLE13=14-E.T.'s Blues
TTITLE14=18-Tuning Notes
EXTD=YEAR: 1999
EXTT0=
EXTT1=
EXTT2=
EXTT3=
EXTT4=
EXTT5=
EXTT6=
EXTT7=
EXTT8=
EXTT9=
EXTT10=
EXTT11=
EXTT12=
EXTT13=
EXTT14=
PLAYORDER=
